<svg version="1.0" xmlns="http://www.w3.org/2000/svg" width="512.000000ptpx" height="512.000000ptpx" viewBox="0 0 512.000000 512.000000" preserveAspectRatio="xMidYMid meet" transform="rotate(0) scale(1, 1)">

<g transform="translate(0.000000,512.000000) scale(0.100000,-0.100000)" fill="#fe5f00" stroke="none">
<path d="M1775 5080 c-367 -125 -690 -322 -970 -592 -445 -427 -710 -956 -786&#10;-1568 -20 -156 -17 -508 5 -655 60 -410 198 -772 421 -1105 417 -621 1066&#10;-1026 1820 -1136 147 -22 499 -25 655 -5 438 55 849 214 1200 464 381 273 703&#10;672 885 1097 45 106 117 313 107 308 -4 -2 -68 -33 -142 -70 -232 -114 -461&#10;-186 -710 -225 -161 -24 -490 -24 -655 1 -679 103 -1260 472 -1640 1041 -190&#10;285 -318 618 -371 970 -25 166 -26 496 -1 655 39 252 111 479 227 715 38 76&#10;68 140 67 141 -1 1 -51 -16 -112 -36z m-821 -1512 c4 -40 20 -138 36 -218 151&#10;-756 596 -1435 1232 -1878 395 -275 861 -456 1328 -515 l105 -13 -62 -37&#10;c-214 -130 -507 -225 -788 -257 -398 -44 -861 62 -1210 277 -526 325 -868 858&#10;-940 1463 -48 404 30 799 231 1167 25 46 49 83 53 83 5 0 11 -33 15 -72z"/>
</g>
</svg>