<svg version="1.0" xmlns="http://www.w3.org/2000/svg" width="626.000000ptpx" height="626.000000ptpx" viewBox="0 0 626.000000 626.000000" preserveAspectRatio="xMidYMid meet" transform="rotate(0) scale(1, 1)">

<g transform="translate(0.000000,626.000000) scale(0.100000,-0.100000)" fill="#fe5f00" stroke="none">
<path d="M3075 6007 c-53 -30 -85 -79 -85 -131 0 -23 7 -86 15 -141 10 -60 18&#10;-216 22 -392 7 -319 9 -330 69 -370 38 -24 120 -23 164 3 62 36 74 71 79 229&#10;6 240 -37 693 -73 764 -32 60 -120 78 -191 38z"/>
<path d="M1124 5391 c-69 -32 -105 -104 -90 -183 4 -19 29 -60 62 -98 94 -109&#10;237 -290 307 -387 163 -227 166 -229 241 -239 56 -8 129 24 157 70 23 38 25&#10;103 2 136 -88 130 -347 470 -442 580 -120 140 -156 158 -237 121z"/>
<path d="M4938 5107 c-14 -7 -98 -73 -185 -147 -87 -74 -219 -186 -295 -248&#10;-75 -61 -144 -122 -152 -134 -21 -29 -20 -101 0 -144 36 -76 119 -103 198 -64&#10;25 12 132 94 238 182 425 354 439 370 418 446 -11 42 -60 95 -103 111 -37 14&#10;-85 13 -119 -2z"/>
<path d="M2910 4484 c-14 -2 -65 -11 -115 -20 -611 -103 -1120 -628 -1220&#10;-1258 -21 -130 -16 -353 9 -481 84 -413 368 -753 773 -924 294 -124 630 -145&#10;962 -61 491 124 923 436 1134 820 126 230 182 511 143 725 -27 154 -64 264&#10;-128 388 -232 446 -619 734 -1043 778 -55 6 -116 15 -135 20 -37 11 -338 21&#10;-380 13z m5 -325 c34 -20 44 -21 128 -13 51 5 142 8 202 7 321 -2 648 -173&#10;851 -441 264 -350 272 -774 21 -1122 -53 -74 -208 -225 -281 -275 -116 -79&#10;-132 -89 -246 -146 -148 -74 -289 -124 -443 -156 -108 -22 -138 -24 -267 -20&#10;-113 4 -167 11 -245 31 -454 120 -785 539 -785 994 0 412 295 848 718 1061 77&#10;39 229 89 304 100 4 1 23 -9 43 -20z"/>
<path d="M71 3382 c-71 -36 -91 -137 -42 -216 37 -59 75 -72 281 -96 102 -11&#10;232 -27 290 -35 58 -8 185 -24 282 -35 168 -20 179 -21 213 -4 46 21 65 59 65&#10;127 0 94 -55 152 -160 167 -93 14 -871 110 -888 110 -4 0 -22 -8 -41 -18z"/>
<path d="M5145 3320 c-83 -3 -149 -11 -163 -18 -12 -7 -33 -31 -47 -52 -45&#10;-72 -27 -172 38 -215 32 -21 29 -21 649 -11 603 10 577 6 618 85 35 70 19 145&#10;-42 196 l-30 25 -441 -2 c-243 -1 -505 -4 -582 -8z"/>
<path d="M4440 1988 c-78 -21 -120 -77 -120 -160 0 -42 3 -46 107 -143 59 -55&#10;240 -233 403 -396 319 -320 332 -330 408 -309 76 20 137 124 113 191 -15 44&#10;-35 66 -241 274 -361 364 -543 531 -588 541 -15 3 -31 7 -37 8 -5 2 -26 -1&#10;-45 -6z"/>
<path d="M1393 1548 c-72 -51 -211 -150 -309 -220 -213 -152 -216 -153 -324&#10;-228 -190 -131 -201 -140 -220 -183 -49 -112 48 -247 156 -218 21 6 92 48 156&#10;93 65 46 153 108 198 138 44 30 143 100 219 155 76 55 164 118 196 140 123 87&#10;191 143 213 175 42 62 22 154 -45 209 -64 52 -89 46 -240 -61z"/>
<path d="M2899 1417 c-71 -47 -70 -34 -60 -590 11 -551 9 -535 79 -575 50 -28&#10;103 -28 159 -1 77 37 75 23 66 594 -8 495 -8 500 -30 531 -46 64 -150 84 -214&#10;41z"/>
</g>
</svg>