<svg width="8" height="13" viewBox="0 0 8 13" fill="none" xmlns="http://www.w3.org/2000/svg">
<path d="M2.22534 0.975574C2.37475 0.976733 2.52208 1.00656 2.65649 1.06288C2.7909 1.11919 2.90898 1.20056 3.00205 1.30099L7.77779 6.4946C7.92326 6.64952 8.00162 6.84272 7.99951 7.04123C7.99739 7.23973 7.91492 7.43123 7.76618 7.58301L2.71072 12.6717C2.53909 12.8449 2.29398 12.9524 2.02929 12.9705C1.76461 12.9886 1.50205 12.9158 1.29935 12.7681C1.09666 12.6205 0.970455 12.4101 0.948489 12.1832C0.926524 11.9563 1.0106 11.7315 1.18223 11.5583L5.70178 7.01243L1.43025 2.37275C1.30929 2.24565 1.23324 2.09164 1.21109 1.92894C1.18894 1.76624 1.22162 1.60166 1.30526 1.45468C1.38891 1.30769 1.52001 1.18446 1.68307 1.09955C1.84612 1.01465 2.0343 0.971623 2.22534 0.975574Z" fill="#EDEDED"/>
</svg>
