<svg xmlns="http://www.w3.org/2000/svg" xmlns:xlink="http://www.w3.org/1999/xlink" version="1.1" viewBox="0 0 512 512" style="enable-background:new 0 0 512 512;" xml:space="preserve" transform="matrix(1, 0, 0, 1, 0, 0)"><g id="_x32_9_Smart_House_x2C__Smart_Home_x2C__Internet_of_Things_x2C__Real_Estate_x2C__Technology"><g><g><g><path style="fill:#ffffff;" d="M501.037,190.985l-23.687,32.253l-26.317-19.334v-0.01L256,60.607L60.966,203.894v0.01      L34.65,223.238l-23.687-32.253C24.998,180.674,241.779,21.41,256,10.963L501.037,190.985z"/><path style="fill:#946850;" d="M256,60.607L60.966,203.894c0,14.06,0,280.834,0,297.143h390.067c0-15.701,0-283.197,0-297.143      L256,60.607z"/><path style="fill:#946850;" d="M401.02,391.019v50.013c0,5.518-4.472,10.001-10.001,10.001h-50.004v-60.014H401.02z"/><path style="fill:#946850;" d="M401.02,341.016v50.004h-60.004v-60.004h50.004C396.548,331.015,401.02,335.487,401.02,341.016z"/><path style="fill:#946850;" d="M341.016,391.019v60.014h-50.013c-5.518,0-10.001-4.482-10.001-10.001v-50.013H341.016z"/><path style="fill:#946850;" d="M341.016,331.015v60.004h-60.014v-50.004c0-5.528,4.482-10.001,10.001-10.001H341.016z"/><path style="fill:#ffffff;" d="M230.998,361.017v140.02H110.98v-140.02c0-16.575,13.427-30.002,30.002-30.002h60.014      C217.561,331.015,230.998,344.442,230.998,361.017z"/><polygon style="fill:#946850;" points="90.978,80.977 90.978,132.196 30.964,176.293 30.964,80.977     "/></g></g><g><g><g id="XMLID_968_"><path style="fill:#f5ba83;" d="M471.456,231.262L256,72.971L40.544,231.262c-4.429,3.255-10.669,2.303-13.926-2.13       L2.935,196.886c-3.257-4.434-2.302-10.667,2.13-13.924L250.102,2.936c3.51-2.578,8.286-2.578,11.795,0l245.037,180.027       c4.433,3.257,5.387,9.49,2.13,13.924l-23.683,32.245C482.119,233.573,475.88,234.513,471.456,231.262z M261.898,52.583       l213.325,156.726l11.891-16.189L256,23.323L24.887,193.12l11.891,16.189L250.102,52.583       C253.607,50.009,258.381,50,261.898,52.583z"/></g><g id="XMLID_967_"><path style="fill:#f5ba83;" d="M451.03,510.998H60.97c-5.501,0-9.961-4.46-9.961-9.961V203.892c0-5.501,4.46-9.961,9.961-9.961       s9.961,4.46,9.961,9.961v287.184h370.137V203.892c0-5.501,4.46-9.961,9.961-9.961c5.501,0,9.961,4.46,9.961,9.961v297.145       C460.99,506.538,456.53,510.998,451.03,510.998z"/></g><g id="XMLID_966_"><path style="fill:#f5ba83;" d="M501.037,510.998H10.963c-5.501,0-9.961-4.46-9.961-9.961s4.46-9.961,9.961-9.961h490.074       c5.501,0,9.961,4.46,9.961,9.961S506.538,510.998,501.037,510.998z"/></g><g id="XMLID_965_"><path style="fill:#f5ba83;" d="M230.997,510.998c-5.501,0-9.961-4.46-9.961-9.961V361.016c0-11.052-8.992-20.044-20.044-20.044       h-60.009c-11.052,0-20.043,8.992-20.043,20.044v140.021c0,5.501-4.46,9.961-9.961,9.961s-9.961-4.46-9.961-9.961V361.016       c0-22.037,17.929-39.966,39.965-39.966h60.009c22.037,0,39.966,17.929,39.966,39.966v140.021       C240.958,506.538,236.498,510.998,230.997,510.998z"/></g><g id="XMLID_964_"><path style="fill:#f5ba83;" d="M190.99,435.987c-5.501,0-9.961-4.46-9.961-9.961v-20.003c0-5.501,4.46-9.961,9.961-9.961       c5.501,0,9.961,4.46,9.961,9.961v20.003C200.951,431.527,196.491,435.987,190.99,435.987z"/></g><g id="XMLID_963_"><path style="fill:#f5ba83;" d="M391.02,460.99H291.005c-11.008,0-19.963-8.955-19.963-19.963V341.012       c0-11.008,8.955-19.963,19.963-19.963H391.02c11.008,0,19.963,8.955,19.963,19.963v100.015       C410.983,452.035,402.028,460.99,391.02,460.99z M291.005,340.972l-0.041,100.056c2.081,0.001-4.812-0.002,100.076,0.04       l0.021-100.055L291.005,340.972z"/></g><g id="XMLID_962_"><path style="fill:#f5ba83;" d="M401.022,400.981H281.003c-5.501,0-9.961-4.46-9.961-9.961s4.46-9.961,9.961-9.961h120.019       c5.501,0,9.961,4.46,9.961,9.961S406.523,400.981,401.022,400.981z"/></g><g id="XMLID_961_"><path style="fill:#f5ba83;" d="M341.013,460.99c-5.501,0-9.961-4.46-9.961-9.961V331.011c0-5.501,4.46-9.961,9.961-9.961       c5.501,0,9.961,4.46,9.961,9.961v120.019C350.974,456.53,346.513,460.99,341.013,460.99z"/></g><g id="XMLID_960_"><path style="fill:#f5ba83;" d="M256,250.959c-5.562,0-9.961-4.557-9.961-9.961c0-5.577,4.625-10.108,10.217-9.962       c5.417,0.142,9.705,4.605,9.705,9.962C265.961,246.407,261.552,250.959,256,250.959z"/></g><g id="XMLID_959_"><path style="fill:#f5ba83;" d="M279.342,215.192c-13.397-11.589-33.315-11.565-46.684,0c-4.162,3.597-10.451,3.144-14.05-1.016       c-3.599-4.16-3.145-10.451,1.016-14.05c10.093-8.732,23.012-13.541,36.377-13.541c13.364,0,26.283,4.808,36.377,13.541       c4.16,3.599,4.615,9.89,1.016,14.05C289.798,218.33,283.51,218.797,279.342,215.192z"/></g><g id="XMLID_958_"><path style="fill:#f5ba83;" d="M299.49,177.129c-24.962-21.596-62.069-21.553-86.981,0c-4.161,3.598-10.451,3.145-14.05-1.016       s-3.145-10.451,1.016-14.05c32.451-28.075,80.663-28.019,113.05,0c4.16,3.599,4.615,9.89,1.016,14.05       C309.946,180.267,303.659,180.733,299.49,177.129z"/></g><g id="XMLID_957_"><path style="fill:#f5ba83;" d="M30.966,186.258c-5.501,0-9.961-4.46-9.961-9.961V80.974c0-5.501,4.46-9.961,9.961-9.961h60.008       c5.501,0,9.961,4.46,9.961,9.961v51.227c0,5.501-4.46,9.961-9.961,9.961s-9.961-4.46-9.961-9.961V90.934H40.927v85.363       C40.927,181.798,36.467,186.258,30.966,186.258z"/></g></g></g></g></g><g id="Layer_1"/></svg>